<?xml version="1.0"?><svg width="640" height="480" xmlns="http://www.w3.org/2000/svg">
 <title>wave pattern</title>
 <metadata id="metadata18081">image/svg+xmlPublic Domainclker.comMohamed Ibrahimmap symbolsmap symbols</metadata>
 <g>
  <title>Layer 1</title>
  <path fill="#01016d" fill-rule="nonzero" id="path6712" d="m255.639999,288.600006c-6.837006,6.626007 -16.061996,9.223999 -26.291992,9.223999c-12.987015,0 -24.808014,-5.300995 -31.593002,-15.320007c-6.73201,10.230988 -18.606003,15.320007 -31.753006,15.320007c-12.985992,0 -24.701004,-5.407013 -31.485992,-15.425995c-6.733009,10.336975 -18.606003,15.425995 -31.91201,15.425995c-9.594193,0 -18.3937,-2.174011 -25.020096,-8.058014l-5.035797,-36.04599c6.891495,9.118011 16.750999,15.001007 30.055893,15.001007c13.306007,0 25.179001,-6.519012 31.91201,-16.856003c6.784988,10.018997 18.5,16.856003 31.485992,16.856003c13.147003,0 25.020996,-6.519012 31.753006,-16.750015c6.784988,10.018997 18.605988,16.750015 31.593002,16.750015c13.251999,0 24.966995,-6.837006 31.645981,-17.174011l-5.353989,37.053009z"/>
  <path fill="#01016d" fill-rule="nonzero" d="m382.640442,289.600159c-6.83786,6.625854 -16.061951,9.223511 -26.292511,9.223511c-12.987244,0 -24.807861,-5.300781 -31.593292,-15.319885c-6.731842,10.23114 -18.606018,15.319885 -31.752289,15.319885c-12.986664,0 -24.701843,-5.406799 -31.486694,-15.425903c-6.732422,10.337158 -18.606049,15.425903 -31.911285,15.425903c-9.594543,0 -18.394043,-2.173645 -25.020447,-8.057465l-5.035782,-36.046021c6.891434,9.117493 17.810989,15.001312 30.056229,15.001312c13.305237,0 25.178864,-6.519836 31.911285,-16.856384c6.784851,10.018524 18.500031,16.856384 31.486694,16.856384c13.146271,0 25.020447,-6.519836 31.752289,-16.750397c6.785431,10.018555 18.606049,16.750397 31.593292,16.750397c13.252258,0 24.967438,-6.83786 31.646301,-17.174408l-5.35379,37.05307z" id="svg_1"/>
  <ellipse fill="#0000ff" cx="257" cy="244" id="svg_3" ry="11"/>
  <ellipse fill="#0000ff" cx="258" cy="245" id="svg_4" ry="5"/>
  <path fill="#01016d" fill-rule="nonzero" d="m509.640442,290.600159c-6.83786,6.625854 -16.061951,9.223511 -26.292511,9.223511c-12.987244,0 -24.807861,-5.300781 -31.593292,-15.319885c-6.731842,10.23114 -18.606018,15.319885 -31.752289,15.319885c-12.986664,0 -24.701843,-5.406799 -31.486694,-15.425903c-6.732422,10.337158 -18.606049,15.425903 -31.911285,15.425903c-9.594543,0 -18.394043,-2.173645 -25.020447,-8.057465l-5.035767,-36.046021c6.891418,9.117493 17.810974,15.001312 30.056213,15.001312c13.305237,0 25.178864,-6.519836 31.911285,-16.856384c6.784851,10.018524 18.500031,16.856384 31.486694,16.856384c13.146271,0 25.020447,-6.519836 31.752289,-16.750397c6.785431,10.018555 18.606049,16.750397 31.593292,16.750397c13.252258,0 24.967438,-6.83786 31.646332,-17.174408l-5.353821,37.05307z" id="svg_5"/>
  <path fill="#007f7f" fill-rule="nonzero" d="m255.640442,330.600159c-6.83786,6.625854 -16.061951,9.223511 -26.292511,9.223511c-12.987244,0 -24.807861,-5.300781 -31.593292,-15.319885c-6.731842,10.23114 -18.606018,15.319885 -31.752289,15.319885c-12.986664,0 -24.701843,-5.406799 -31.486694,-15.425903c-6.732422,10.337158 -18.606049,15.425903 -31.911285,15.425903c-9.594543,0 -18.394043,-2.173645 -25.020447,-8.057465l-5.035782,-36.046021c6.891441,9.117493 17.811012,15.001312 30.056229,15.001312c13.305237,0 25.178864,-6.519836 31.911285,-16.856384c6.784851,10.018524 18.500031,16.856384 31.486694,16.856384c13.146271,0 25.020447,-6.519836 31.752289,-16.750397c6.785431,10.018555 18.606049,16.750397 31.593292,16.750397c13.252258,0 24.967438,-6.83786 31.646301,-17.174408l-5.35379,37.05307z" id="svg_6"/>
  <path fill="#007f7f" fill-rule="nonzero" d="m382.640442,331.600159c-6.83786,6.625854 -16.061951,9.223511 -26.292511,9.223511c-12.987244,0 -24.807861,-5.300781 -31.593292,-15.319885c-6.731842,10.23114 -18.606018,15.319885 -31.752289,15.319885c-12.986664,0 -24.701843,-5.406799 -31.486694,-15.425903c-6.732422,10.337158 -18.606049,15.425903 -31.911285,15.425903c-9.594543,0 -18.394043,-2.173645 -25.020447,-8.057465l-5.035782,-36.046021c6.891434,9.117493 17.810989,15.001312 30.056229,15.001312c13.305237,0 25.178864,-6.519836 31.911285,-16.856384c6.784851,10.018524 18.500031,16.856384 31.486694,16.856384c13.146271,0 25.020447,-6.519836 31.752289,-16.750397c6.785431,10.018555 18.606049,16.750397 31.593292,16.750397c13.252258,0 24.967438,-6.83786 31.646301,-17.174408l-5.35379,37.05307z" id="svg_7"/>
  <path fill="#007f7f" fill-rule="nonzero" d="m509.640442,330.600159c-6.83783,6.625854 -16.061951,9.223511 -26.292511,9.223511c-12.987244,0 -24.807861,-5.300781 -31.593292,-15.319885c-6.731842,10.23114 -18.606018,15.319885 -31.752289,15.319885c-12.986664,0 -24.701843,-5.406799 -31.486694,-15.425903c-6.732422,10.337158 -18.606049,15.425903 -31.911285,15.425903c-9.594543,0 -18.394043,-2.173645 -25.020447,-8.057465l-5.035767,-36.046021c6.891418,9.117493 17.810974,15.001312 30.056213,15.001312c13.305237,0 25.178864,-6.519836 31.911285,-16.856384c6.784851,10.018524 18.500031,16.856384 31.486694,16.856384c13.146271,0 25.020447,-6.519836 31.752289,-16.750397c6.785431,10.018555 18.606049,16.750397 31.593292,16.750397c13.252289,0 24.967438,-6.83786 31.646332,-17.174408l-5.353821,37.05307z" id="svg_8"/>
  <path fill="#003f7f" fill-rule="nonzero" d="m256.640442,370.600159c-6.83786,6.625854 -16.061951,9.223511 -26.292511,9.223511c-12.987244,0 -24.807861,-5.300781 -31.593292,-15.319885c-6.731842,10.23114 -18.606018,15.319885 -31.752289,15.319885c-12.986664,0 -24.701843,-5.406799 -31.486694,-15.425903c-6.732422,10.337158 -18.606049,15.425903 -31.911285,15.425903c-9.594543,0 -18.394043,-2.173645 -25.020447,-8.057465l-5.035782,-36.046021c6.891441,9.117493 17.811012,15.001312 30.056229,15.001312c13.305237,0 25.178864,-6.519836 31.911285,-16.856384c6.784851,10.018524 18.500031,16.856384 31.486694,16.856384c13.146271,0 25.020447,-6.519836 31.752289,-16.750397c6.785431,10.018555 18.606049,16.750397 31.593292,16.750397c13.252258,0 24.967438,-6.83786 31.646301,-17.174408l-5.35379,37.05307z" id="svg_9"/>
  <path fill="#003f7f" fill-rule="nonzero" d="m383.640442,369.600159c-6.83786,6.625854 -16.061951,9.223511 -26.292511,9.223511c-12.987244,0 -24.807861,-5.300781 -31.593292,-15.319885c-6.731842,10.23114 -18.606018,15.319885 -31.752289,15.319885c-12.986664,0 -24.701843,-5.406799 -31.486694,-15.425903c-6.732422,10.337158 -18.606049,15.425903 -31.911285,15.425903c-9.594543,0 -18.394043,-2.173645 -25.020447,-8.057465l-5.035782,-36.046021c6.891434,9.117493 17.810989,15.001312 30.056229,15.001312c13.305237,0 25.178864,-6.519836 31.911285,-16.856384c6.784851,10.018524 18.500031,16.856384 31.486694,16.856384c13.146271,0 25.020447,-6.519836 31.752289,-16.750397c6.785431,10.018555 18.606049,16.750397 31.593292,16.750397c13.252258,0 24.967438,-6.83786 31.646301,-17.174408l-5.35379,37.05307z" id="svg_10"/>
  <path fill="#003f7f" fill-rule="nonzero" d="m510.640442,371.600159c-6.83783,6.625854 -16.061951,9.223511 -26.292511,9.223511c-12.987244,0 -24.807861,-5.300781 -31.593292,-15.319885c-6.731842,10.23114 -18.606018,15.319885 -31.752289,15.319885c-12.986664,0 -24.701843,-5.406799 -31.486694,-15.425903c-6.732422,10.337158 -18.606049,15.425903 -31.911285,15.425903c-9.594543,0 -18.394043,-2.173645 -25.020447,-8.057465l-5.035767,-36.046021c6.891418,9.117493 17.810974,15.001312 30.056213,15.001312c13.305237,0 25.178864,-6.519836 31.911285,-16.856384c6.784851,10.018524 18.500031,16.856384 31.486694,16.856384c13.146271,0 25.020447,-6.519836 31.752289,-16.750397c6.785431,10.018555 18.606049,16.750397 31.593292,16.750397c13.252289,0 24.967438,-6.83786 31.646332,-17.174408l-5.353821,37.05307z" id="svg_11"/>
 </g>
</svg>